<svg xmlns="http://www.w3.org/2000/svg" width="137" height="51" fill="none"><path fill="#F58220" d="M0 15v20.8a4.5 4.5 0 002.3 3.9l18 10.4a4.5 4.5 0 004.5 0l18-10.4a4.5 4.5 0 002.2-4V15a4.5 4.5 0 00-2.2-3.8L24.8.6a4.5 4.5 0 00-4.5 0l-18 10.5a4.5 4.5 0 00-2.2 3.8z"/><path fill="#273338" d="M22.6 40.3a14.9 14.9 0 100-29.8 14.9 14.9 0 000 29.8z"/><path fill="#fff" d="M24.5 26.8h-4.2v4h4.1c1.4 0 2.2-.8 2.2-2s-.9-2-2-2zm-.2-6.8h-4v3.8h3.9c1.2 0 2.1-.8 2.1-2 0-1-.9-1.8-2-1.8zm6.3 1.3c0 1.4-.6 2.5-1.4 3.1-.6.4-1 .6-1.5.7 1.3.2 2.6 1.2 3 2.3.3.6.4 1.2.4 1.9 0 3.3-2.4 5-5.9 5H16V16.4h9.2c3.1 0 5.4 1.9 5.4 4.9z"/><path fill="#273338" d="M64 22.2h-2.8V16l-3.3 6.2h-1.3L53.3 16v6.2h-2.8V10.5h2.8l4 7.4 3.8-7.4H64v11.7zm10.4 0h-9V10.5h9V13h-6.2v2.2H74v2.3h-5.7v2.2h6.2v2.5zm7-9.2h-2.7v2.8h2.7c1 0 1.7-.5 1.7-1.4 0-1-.8-1.4-1.7-1.4zm1.5 5l3.6 4.2h-3.4l-3.6-4h-.8v4h-2.9V10.5h6c2.3 0 4.1 1.5 4.1 3.9 0 2-1.3 3.3-3 3.7zm22-4.2l-1.5 3.8h3l-1.5-3.8zm3.2 8.4l-.8-2.1h-4.9l-.8 2.1h-3.1l4.9-11.7h3l4.8 11.7h-3zm8.7-9.2h-1.6v6.7h1.6c2.1 0 3.6-1.3 3.6-3.3 0-2-1.5-3.4-3.6-3.4zm.1-2.5c3 0 5 1.4 6 3.5.3.7.4 1.5.4 2.4 0 1.8-.7 3.3-1.7 4.2-1.1 1-2.7 1.6-4.7 1.6h-4.6V10.5h4.6zm16.4 7.3l.3-1.4c0-1.5-.9-2.7-2-3.2a3.5 3.5 0 00-1.4-.3c-1.5 0-2.6.9-3 2a4 4 0 00-.3 1.5 3.3 3.3 0 003.3 3.4c1.6 0 2.7-.9 3.1-2zm1.3-5.7a6 6 0 011.8 4.3 6 6 0 01-1.8 4.3 6.3 6.3 0 01-4.4 1.8 6.3 6.3 0 01-4.4-1.8 6 6 0 010-8.7 6.2 6.2 0 014.4-1.7 6.2 6.2 0 014.4 1.8zM57.8 33.8h-3.6v3.4h3.6c1 0 1.8-.6 1.8-1.7 0-1-.8-1.7-1.8-1.7zm-.1-5.8h-3.5v3.3h3.3c1 0 1.9-.7 1.9-1.8 0-.9-.8-1.5-1.7-1.5zM63 29c0 1.2-.5 2.1-1.2 2.7-.4.3-.9.5-1.3.5v.1c1.2.1 2.3 1 2.7 2l.3 1.5c0 2.9-2.1 4.3-5 4.3h-8V25h7.9c2.7 0 4.6 1.6 4.6 4.2zm5.2-4.2h-3.8v15.3h3.8V25zm10.1 3.3v12h-3.7v-12h-5V25h13.7v3.3h-5zm32.5 6.2c.3-.6.4-1.2.4-1.8 0-2-1.1-3.5-2.6-4.2a4.6 4.6 0 00-1.8-.4c-2 0-3.4 1.2-4 2.7a5.1 5.1 0 00-.4 2c0 2 1.2 3.5 2.7 4.1a4.4 4.4 0 001.7.3c2 0 3.4-1.2 4-2.7zm1.8-7.5a8 8 0 010 11.4 8.2 8.2 0 01-5.8 2.3 8.2 8.2 0 01-5.8-2.3 7.9 7.9 0 01-2.3-5.7A8 8 0 01101 27a8.1 8.1 0 015.8-2.3c2.5 0 4.4 1 5.8 2.3zm7-2H116v15.3h3.7V25zm16 15.5h-3l-7.8-8.9v8.9h-3.7V25.1h3l7.8 9.1v-9.1h3.8v15.3zm-39.1-4.8l-1.4-.8a3.8 3.8 0 01-3.6 2.4 4.3 4.3 0 01-1.7-.4 4.5 4.5 0 01-2.7-4.2c0-.6.1-1.2.4-1.8.6-1.5 2-2.8 4-2.8 1.5 0 2.6.7 3.2 1.6l.4.8 1.4-.8 2-1.2a6.9 6.9 0 00-2-2.2c-1.5-1-3.1-1.6-5-1.6a8.2 8.2 0 00-5.8 2.3 8 8 0 00-2.3 5.7 8 8 0 002.3 5.7 8.2 8.2 0 005.8 2.3 9 9 0 002.7-.4 7 7 0 004.2-3.5l-2-1.1zm.4-17l-1-.5a3 3 0 01-2.8 1.8c-.5 0-.9-.1-1.3-.3-1.1-.5-2-1.6-2-3.2 0-.5 0-1 .2-1.4a3.2 3.2 0 013-2.1 3 3 0 012.6 1.2l.3.6 1-.6 1.5-.9a5.3 5.3 0 00-1.5-1.7c-1.1-.8-2.4-1.2-3.8-1.2-1.9 0-3.4.8-4.4 1.7a6 6 0 00-1.8 4.4 6 6 0 001.8 4.3 6.2 6.2 0 004.4 1.8c.7 0 1.4-.1 2-.3a5.4 5.4 0 003.3-2.7l-1.5-.8z"/></svg>